HIERARCHY
ROOT Hips
{
	OFFSET 33.886600 -26.735415 95.601089
	CHANNELS 6 Xposition Yposition Zposition Xrotation Yrotation Zrotation
	JOINT spine
	{
		OFFSET 0.000000 -0.467661 8.132492
		CHANNELS 3 Xrotation Yrotation Zrotation
		JOINT spine1
		{
			OFFSET 0.000000 -0.000002 10.349800
			CHANNELS 3 Xrotation Yrotation Zrotation
			JOINT spine2
			{
				OFFSET 0.000000 -0.000002 9.916992
				CHANNELS 3 Xrotation Yrotation Zrotation
				JOINT Neck
				{
					OFFSET 0.000000 -1.213903 25.461006
					CHANNELS 3 Xrotation Yrotation Zrotation
					JOINT Head
					{
						OFFSET 0.000000 0.000000 7.692444
						CHANNELS 3 Xrotation Yrotation Zrotation
						End Site
						{
							OFFSET 0.000000 6.140625 18.619995
						}
					}
				}
				JOINT RightShoulder
				{
					OFFSET -4.175751 0.581444 10.709602
					CHANNELS 3 Xrotation Yrotation Zrotation
					JOINT RightArm
					{
						OFFSET 0.000000 -0.000002 14.046600
						CHANNELS 3 Xrotation Yrotation Zrotation
						JOINT RightArmRoll
						{
							OFFSET 0.000000 0.000000 7.090973
							CHANNELS 3 Xrotation Yrotation Zrotation
							JOINT RightForeArm
							{
								OFFSET 0.000000 -0.000004 20.653503
								CHANNELS 3 Xrotation Yrotation Zrotation
								JOINT RightForeArmRoll
								{
									OFFSET 0.000000 -0.000002 7.957184
									CHANNELS 3 Xrotation Yrotation Zrotation
									JOINT RightHand
									{
										OFFSET 0.000000 -0.000002 15.968307
										CHANNELS 3 Xrotation Yrotation Zrotation
										End Site
										{
											OFFSET 0.000000 0.000000 0.100006
										}
									}
								}
							}
						}
					}
				}
				JOINT LeftShoulder
				{
					OFFSET 4.175751 0.581444 10.709602
					CHANNELS 3 Xrotation Yrotation Zrotation
					JOINT LeftArm
					{
						OFFSET 0.000000 -0.000002 14.046600
						CHANNELS 3 Xrotation Yrotation Zrotation
						JOINT LeftArmRoll
						{
							OFFSET 0.000000 0.000000 7.090973
							CHANNELS 3 Xrotation Yrotation Zrotation
							JOINT LeftForeArm
							{
								OFFSET 0.000000 -0.000004 20.653503
								CHANNELS 3 Xrotation Yrotation Zrotation
								JOINT LeftForeArmRoll
								{
									OFFSET 0.000000 -0.000002 7.957184
									CHANNELS 3 Xrotation Yrotation Zrotation
									JOINT LeftHand
									{
										OFFSET 0.000000 -0.000002 15.968307
										CHANNELS 3 Xrotation Yrotation Zrotation
										End Site
										{
											OFFSET 0.000000 0.000000 0.100006
										}
									}
								}
							}
						}
					}
				}
			}
		}
	}
	JOINT RightUpLeg
	{
		OFFSET -7.208340 1.108839 -1.321823
		CHANNELS 3 Xrotation Yrotation Zrotation
		JOINT RightUpLegRoll
		{
			OFFSET 0.000000 -0.000004 18.723801
			CHANNELS 3 Xrotation Yrotation Zrotation
			JOINT RightLeg
			{
				OFFSET 0.000000 0.000004 -23.186600
				CHANNELS 3 Xrotation Yrotation Zrotation
				JOINT RightLegRoll
				{
					OFFSET 0.000000 -0.000004 23.262398
					CHANNELS 3 Xrotation Yrotation Zrotation
					JOINT RightFoot
					{
						OFFSET 0.000000 -0.000002 19.362114
						CHANNELS 3 Xrotation Yrotation Zrotation
						JOINT RightToeBase
						{
							OFFSET 0.000000 -0.000004 16.185699
							CHANNELS 3 Xrotation Yrotation Zrotation
							End Site
							{
								OFFSET 0.006861 0.903522 7.838623
							}
						}
					}
				}
			}
		}
	}
	JOINT LeftUpLeg
	{
		OFFSET 7.208340 1.108839 -1.321823
		CHANNELS 3 Xrotation Yrotation Zrotation
		JOINT LeftUpLegRoll
		{
			OFFSET 0.000000 -0.000004 18.723900
			CHANNELS 3 Xrotation Yrotation Zrotation
			JOINT LeftLeg
			{
				OFFSET 0.000000 -0.000004 23.186501
				CHANNELS 3 Xrotation Yrotation Zrotation
				JOINT LeftLegRoll
				{
					OFFSET 0.000000 -0.000004 23.477509
					CHANNELS 3 Xrotation Yrotation Zrotation
					JOINT LeftFoot
					{
						OFFSET 0.000000 -0.000002 19.147003
						CHANNELS 3 Xrotation Yrotation Zrotation
						JOINT LeftToeBase
						{
							OFFSET 0.000000 -0.000004 16.185699
							CHANNELS 3 Xrotation Yrotation Zrotation
							End Site
							{
								OFFSET -0.030746 0.903522 7.838623
							}
						}
					}
				}
			}
		}
	}
}
MOTION
Frames: 11
Frame Time: 0.041667
51.866798 -11.191115 96.232300 -4.109698 0.128679 1.665895 -0.675149 -0.524643 -0.035256 2.639547 -1.065738 -0.055920 4.284744 -1.066522 -0.043159 13.942193 4.905580 -1.044102 -7.136477 -3.020402 -1.095652 -16.820464 -57.211471 -19.854177 -42.898376 -118.759668 -23.294073 0.000001 0.000005 -0.000005 4.292020 -8.772204 -0.401700 -0.000004 0.000004 -2.999982 -5.000220 -7.998891 0.000121 -14.561415 61.855047 17.284169 -45.524679 115.211317 35.417775 0.000001 0.000002 0.000007 0.072565 9.534082 0.864551 -0.000000 -0.000005 3.013120 -5.000230 7.998831 -0.000136 -2.034381 -173.623982 3.643931 179.999991 -0.000005 -1.070996 167.740376 -2.030651 -0.670151 -0.000002 0.000003 0.172254 70.187051 6.684269 2.608158 25.462882 -7.355109 0.005702 0.335289 173.442122 -1.399542 -0.000005 -0.000004 -1.011660 -11.110743 0.779669 0.624735 -0.000001 -0.000002 -0.121581 71.364337 -6.163342 -3.963408 25.461205 7.347516 -0.006128 
51.855301 -11.195419 96.232803 -4.110477 0.128124 1.682007 -0.675764 -0.525404 -0.034988 2.640557 -1.066047 -0.056415 4.285754 -1.066829 -0.043655 13.946690 4.918555 -1.042614 -7.132923 -3.027808 -1.093898 -16.804808 -57.211597 -19.835433 -42.839790 -118.731869 -23.292509 -0.000001 0.000006 -0.000006 4.363170 -8.815224 -0.396729 -0.000004 0.000004 -2.999981 -5.000221 -7.998890 0.000123 -14.529306 61.855566 17.246772 -45.513867 115.209677 35.398500 0.000002 0.000000 0.000004 0.072566 9.530272 0.864599 -0.000001 -0.000005 3.013118 -5.000230 7.998830 -0.000137 -2.034317 -173.629979 3.646650 179.999991 -0.000005 -1.070995 167.728805 -2.038383 -0.670267 -0.000002 0.000004 0.173066 70.195227 6.686323 2.601626 25.462880 -7.355109 0.005702 0.327702 173.432095 -1.402312 -0.000005 -0.000004 -1.011660 -11.120434 0.776538 0.624742 -0.000001 -0.000002 -0.121575 71.364603 -6.162168 -3.967999 25.461202 7.347516 -0.006126 
51.838402 -11.201416 96.235298 -4.111338 0.127661 1.697876 -0.676419 -0.526193 -0.034713 2.641608 -1.066386 -0.056896 4.286804 -1.067157 -0.044136 13.951209 4.932489 -1.041373 -7.129080 -3.036953 -1.092335 -16.788395 -57.211498 -19.815784 -42.783157 -118.703688 -23.291678 -0.000001 0.000005 -0.000006 4.432038 -8.857569 -0.391710 -0.000005 0.000004 -2.999980 -5.000221 -7.998889 0.000123 -14.496571 61.856037 17.208650 -45.502563 115.207820 35.378529 -0.000001 0.000001 0.000005 0.072565 9.526422 0.864638 -0.000003 -0.000006 3.013119 -5.000230 7.998831 -0.000136 -2.034427 -173.634979 3.649684 179.999991 -0.000005 -1.070996 167.716934 -2.047088 -0.670595 -0.000003 0.000004 0.173896 70.203532 6.688407 2.595088 25.462880 -7.355111 0.005702 0.319942 173.423093 -1.405155 -0.000005 -0.000004 -1.011669 -11.130630 0.773446 0.624750 -0.000002 -0.000001 -0.121579 71.365163 -6.160969 -3.972670 25.461204 7.347516 -0.006127 
51.828705 -11.201815 96.233200 -4.112249 0.127263 1.713570 -0.677102 -0.527003 -0.034435 2.642688 -1.066744 -0.057366 4.287886 -1.067504 -0.044608 13.955536 4.947087 -1.040286 -7.125018 -3.047300 -1.090903 -16.771468 -57.211273 -19.795524 -42.726754 -118.675630 -23.290230 -0.000002 0.000006 -0.000006 4.499326 -8.899442 -0.386653 -0.000005 0.000004 -2.999981 -5.000219 -7.998890 0.000124 -14.463320 61.856345 17.169929 -45.490723 115.205771 35.357932 0.000000 0.000001 0.000005 0.072567 9.522540 0.864669 -0.000002 -0.000005 3.013122 -5.000231 7.998830 -0.000136 -2.034654 -173.640990 3.652980 179.999991 -0.000004 -1.070996 167.704763 -2.055777 -0.669951 -0.000002 0.000004 0.174740 70.212036 6.690496 2.588445 25.462880 -7.355110 0.005702 0.312063 173.413094 -1.408066 -0.000005 -0.000004 -1.011680 -11.141121 0.770381 0.624753 -0.000002 -0.000002 -0.121589 71.365928 -6.159740 -3.977526 25.461202 7.347517 -0.006128 
51.807503 -11.188315 96.226608 -4.113200 0.126900 1.729166 -0.677802 -0.527823 -0.034153 2.643788 -1.067103 -0.057831 4.288987 -1.067862 -0.045072 13.959870 4.962082 -1.039302 -7.120845 -3.058342 -1.089545 -16.754242 -57.210983 -19.774909 -42.670579 -118.647722 -23.288459 0.000000 0.000006 -0.000007 4.565717 -8.941040 -0.381526 -0.000004 0.000003 -2.999981 -5.000221 -7.998890 0.000123 -14.429801 61.856577 17.130895 -45.478709 115.203653 35.337066 0.000001 0.000002 0.000005 0.072564 9.518652 0.864696 -0.000001 -0.000005 3.013120 -5.000230 7.998831 -0.000135 -2.034947 -173.645976 3.656393 179.999991 -0.000005 -1.070995 167.692482 -2.064477 -0.670301 -0.000002 0.000003 0.175589 70.220458 6.692613 2.581706 25.462882 -7.355111 0.005703 0.304113 173.403080 -1.411007 -0.000005 -0.000004 -1.011710 -11.151915 0.767331 0.624755 -0.000001 -0.000001 -0.121602 71.366714 -6.158545 -3.982388 25.461204 7.347516 -0.006125 
51.798805 -11.192617 96.226997 -4.114149 0.126548 1.744732 -0.678505 -0.528647 -0.033871 2.644889 -1.067472 -0.058294 4.290087 -1.068219 -0.045537 13.964113 4.977167 -1.038335 -7.116659 -3.069554 -1.088204 -16.736994 -57.210795 -19.754263 -42.614302 -118.619841 -23.286493 -0.000003 0.000005 -0.000005 4.631892 -8.982581 -0.376318 -0.000003 0.000004 -2.999979 -5.000220 -7.998891 0.000122 -14.396261 61.856898 17.091835 -45.466503 115.201468 35.316026 0.000002 0.000001 0.000005 0.072565 9.514751 0.864723 0.000001 -0.000005 3.013119 -5.000232 7.998831 -0.000136 -2.035260 -173.650975 3.659836 179.999991 -0.000005 -1.070996 167.680202 -2.073175 -0.670669 -0.000002 0.000003 0.176442 70.228982 6.694730 2.574964 25.462884 -7.355111 0.005702 0.296148 173.393081 -1.413953 -0.000005 -0.000004 -1.011730 -11.162807 0.764286 0.624760 -0.000001 -0.000002 -0.121617 71.367581 -6.157320 -3.987236 25.461204 7.347515 -0.006126 
51.793900 -11.197616 96.228996 -4.115089 0.126176 1.760358 -0.679202 -0.529465 -0.033590 2.645989 -1.067830 -0.058760 4.291188 -1.068577 -0.046003 13.968454 4.992053 -1.037328 -7.112515 -3.080429 -1.086825 -16.719854 -57.210505 -19.733743 -42.557601 -118.591864 -23.284330 -0.000001 0.000005 -0.000007 4.698540 -9.024244 -0.370986 -0.000002 0.000003 -2.999979 -5.000222 -7.998890 0.000119 -14.362848 61.857205 17.052921 -45.454311 115.199282 35.295033 0.000002 0.000001 0.000004 0.072565 9.510862 0.864751 -0.000001 -0.000006 3.013120 -5.000231 7.998831 -0.000136 -2.035540 -173.656972 3.663237 179.999991 -0.000004 -1.070996 167.668030 -2.081874 -0.670025 -0.000002 0.000003 0.177289 70.237397 6.696839 2.568325 25.462885 -7.355110 0.005702 0.288212 173.384093 -1.416875 -0.000005 -0.000005 -1.011760 -11.173501 0.761231 0.624760 -0.000001 -0.000001 -0.121630 71.368346 -6.156093 -3.992191 25.461204 7.347516 -0.006127 
51.777802 -11.195918 96.226410 -4.115979 0.125757 1.776100 -0.679875 -0.530268 -0.033313 2.647059 -1.068179 -0.059234 4.292258 -1.068924 -0.046476 13.972883 5.006462 -1.036211 -7.108513 -3.090428 -1.085348 -16.703074 -57.210348 -19.713663 -42.500634 -118.563833 -23.282421 -0.000000 0.000005 -0.000007 4.766353 -9.066256 -0.365523 -0.000006 0.000003 -2.999984 -5.000224 -7.998889 0.000122 -14.329703 61.857478 17.014332 -45.442642 115.197301 35.274628 0.000001 0.000001 0.000004 0.072566 9.506991 0.864783 -0.000001 -0.000005 3.013120 -5.000230 7.998831 -0.000136 -2.035730 -173.661972 3.666443 179.999991 -0.000004 -1.070996 167.655954 -2.089599 -0.670180 -0.000002 0.000003 0.178129 70.245805 6.698912 2.561681 25.462882 -7.355108 0.005702 0.280369 173.374079 -1.419750 -0.000004 -0.000004 -1.011770 -11.183993 0.758159 0.624761 -0.000001 -0.000002 -0.121638 71.369022 -6.154894 -3.996958 25.461210 7.347515 -0.006127 
51.767502 -11.217018 96.227707 -4.116818 0.125263 1.792036 -0.680519 -0.531048 -0.033041 2.648101 -1.068518 -0.059718 4.293299 -1.069252 -0.046962 13.977297 5.020115 -1.034902 -7.104755 -3.099048 -1.083719 -16.686868 -57.210218 -19.694260 -42.442758 -118.535515 -23.280594 -0.000000 0.000005 -0.000006 4.836030 -9.108797 -0.359873 -0.000005 0.000004 -2.999981 -5.000220 -7.998890 0.000123 -14.297120 61.857875 16.976406 -45.431485 115.195525 35.254879 0.000001 0.000002 0.000004 0.072565 9.503152 0.864824 -0.000000 -0.000005 3.013120 -5.000233 7.998829 -0.000136 -2.035787 -173.667955 3.669397 179.999991 -0.000005 -1.070996 167.644179 -2.098286 -0.670523 -0.000002 0.000003 0.178955 70.254103 6.700979 2.555141 25.462882 -7.355111 0.005701 0.272658 173.364080 -1.422558 -0.000005 -0.000005 -1.011780 -11.193986 0.755054 0.624760 -0.000001 -0.000001 -0.121639 71.369487 -6.153693 -4.001636 25.461209 7.347517 -0.006127 
51.755302 -11.214017 96.226402 -4.117555 0.124666 1.808244 -0.681120 -0.531797 -0.032775 2.649091 -1.068817 -0.060220 4.294290 -1.069550 -0.047463 13.981891 5.032713 -1.033342 -7.101327 -3.105769 -1.081882 -16.671436 -57.210286 -19.675798 -42.383957 -118.506924 -23.279245 -0.000001 0.000005 -0.000006 4.908229 -9.152080 -0.354035 -0.000003 0.000003 -2.999980 -5.000223 -7.998889 0.000124 -14.265227 61.858305 16.939289 -45.421178 115.194091 35.236154 0.000002 0.000001 0.000006 0.072563 9.499362 0.864878 -0.000003 -0.000005 3.013120 -5.000231 7.998830 -0.000135 -2.035650 -173.673966 3.671984 179.999991 -0.000005 -1.070995 167.632718 -2.106014 -0.670662 -0.000002 0.000003 0.179760 70.262286 6.703004 2.548702 25.462880 -7.355109 0.005702 0.265139 173.355064 -1.425260 -0.000005 -0.000004 -1.011770 -11.203478 0.751908 0.624759 -0.000001 -0.000002 -0.121630 71.369644 -6.152552 -4.006040 25.461205 7.347518 -0.006128 
51.748505 -11.218814 96.225006 -4.118200 0.123940 1.824794 -0.681672 -0.532507 -0.032518 2.650021 -1.069085 -0.060741 4.295220 -1.069817 -0.047986 13.986557 5.043961 -1.031449 -7.098295 -3.110066 -1.079780 -16.657018 -57.210522 -19.658553 -42.322830 -118.478702 -23.277100 -0.000000 0.000004 -0.000008 4.983670 -9.196302 -0.347951 -0.000003 0.000004 -2.999980 -5.000221 -7.998891 0.000121 -14.234233 61.858824 16.903212 -45.413269 115.192288 35.220212 0.000000 0.000000 0.000005 0.072565 9.495624 0.864945 -0.000001 -0.000005 3.013120 -5.000233 7.998830 -0.000136 -2.035285 -173.679949 3.674077 179.999991 -0.000004 -1.070996 167.621844 -2.112772 -0.670568 -0.000002 0.000003 0.180541 70.270332 6.704957 2.542456 25.462882 -7.355110 0.005703 0.257854 173.346062 -1.427837 -0.000005 -0.000005 -1.011740 -11.212170 0.748705 0.624755 -0.000001 -0.000001 -0.121606 71.369500 -6.151404 -4.010359 25.461209 7.347517 -0.006128 
